<svg xmlns="http://www.w3.org/2000/svg" xmlns:xlink="http://www.w3.org/1999/xlink" width="78" height="78" viewBox="0 0 78 78">
  <defs>
    <linearGradient id="linear-gradient" x1="0.5" x2="0.5" y2="1" gradientUnits="objectBoundingBox">
      <stop offset="0" stop-color="#d8df00"/>
      <stop offset="1" stop-color="#60df00"/>
    </linearGradient>
  </defs>
  <path id="Union_35" data-name="Union 35" d="M0,39A39,39,0,1,1,39,78,39.084,39.084,0,0,1,0,39Zm4.57,0A34.43,34.43,0,1,0,39,4.57,34.469,34.469,0,0,0,4.57,39ZM33.144,68.31a29.419,29.419,0,0,1-10.915-4.543,6.546,6.546,0,0,1-2.853-5.142,6.553,6.553,0,0,1-5.143-2.854A30.2,30.2,0,0,1,9.69,44.7,6.584,6.584,0,0,1,11.315,39,6.584,6.584,0,0,1,9.69,33.3a30.2,30.2,0,0,1,4.543-11.067,6.547,6.547,0,0,1,5.143-2.853,6.547,6.547,0,0,1,2.853-5.143A29.422,29.422,0,0,1,33.144,9.69a6.761,6.761,0,0,1,5.818,1.658A6.591,6.591,0,0,1,44.7,9.69a30.2,30.2,0,0,1,11.067,4.543,6.547,6.547,0,0,1,2.853,5.143,6.546,6.546,0,0,1,5.143,2.852A30.193,30.193,0,0,1,68.31,33.3,6.584,6.584,0,0,1,66.685,39a6.585,6.585,0,0,1,1.625,5.7A30.2,30.2,0,0,1,63.766,55.77a6.553,6.553,0,0,1-5.143,2.854,6.547,6.547,0,0,1-2.852,5.142A30.2,30.2,0,0,1,44.7,68.31a6.592,6.592,0,0,1-5.741-1.658A6.836,6.836,0,0,1,34.4,68.431,6.556,6.556,0,0,1,33.144,68.31Zm8.141-6.772a2.252,2.252,0,0,0,2.543,2.286,25.589,25.589,0,0,0,9.38-3.842,2.235,2.235,0,0,0,.159-3.384L41.285,44.517ZM24.633,56.6a2.235,2.235,0,0,0,.159,3.384,24.874,24.874,0,0,0,9.228,3.842,2.374,2.374,0,0,0,2.695-2.286V44.517ZM14.176,43.828a25.593,25.593,0,0,0,3.842,9.381,2.235,2.235,0,0,0,3.384.158L33.483,41.285H16.462A2.252,2.252,0,0,0,14.176,43.828ZM56.6,53.367a2.236,2.236,0,0,0,3.384-.159,25.59,25.59,0,0,0,3.842-9.381,2.252,2.252,0,0,0-2.286-2.542H44.517Zm0-28.733L44.517,36.715H61.538a2.252,2.252,0,0,0,2.286-2.543,25.589,25.589,0,0,0-3.842-9.38,2,2,0,0,0-1.691-.854A2.41,2.41,0,0,0,56.6,24.633Zm-38.581.158a25.589,25.589,0,0,0-3.842,9.38,2.253,2.253,0,0,0,2.286,2.543H33.483L21.4,24.633a2.415,2.415,0,0,0-1.7-.7A2,2,0,0,0,18.018,24.792Zm23.267-8.33V33.483L53.367,21.4a2.235,2.235,0,0,0-.158-3.384,25.591,25.591,0,0,0-9.381-3.842,1.935,1.935,0,0,0-.371-.036A2.3,2.3,0,0,0,41.285,16.462ZM34.02,14.176a24.875,24.875,0,0,0-9.228,3.842,2.235,2.235,0,0,0-.159,3.384L36.715,33.483V16.462A2.4,2.4,0,0,0,34.4,14.14,1.962,1.962,0,0,0,34.02,14.176Z" fill="url(#linear-gradient)"/>
</svg>
