<svg xmlns="http://www.w3.org/2000/svg" width="24" height="24" viewBox="0 0 24 24">
  <path id="Union_1" data-name="Union 1" d="M0,12A12,12,0,1,1,12,24,12.026,12.026,0,0,1,0,12Zm1.406,0A10.594,10.594,0,1,0,12,1.406,10.606,10.606,0,0,0,1.406,12ZM10.2,21.018a9.052,9.052,0,0,1-3.358-1.4,2.014,2.014,0,0,1-.878-1.582A2.016,2.016,0,0,1,4.38,17.16a9.292,9.292,0,0,1-1.4-3.405A2.026,2.026,0,0,1,3.482,12a2.026,2.026,0,0,1-.5-1.755A9.292,9.292,0,0,1,4.38,6.84a2.015,2.015,0,0,1,1.583-.878A2.014,2.014,0,0,1,6.84,4.38a9.053,9.053,0,0,1,3.358-1.4,2.08,2.08,0,0,1,1.79.51,2.028,2.028,0,0,1,1.766-.51,9.292,9.292,0,0,1,3.405,1.4,2.014,2.014,0,0,1,.878,1.583,2.014,2.014,0,0,1,1.582.878,9.29,9.29,0,0,1,1.4,3.405,2.026,2.026,0,0,1-.5,1.755,2.026,2.026,0,0,1,.5,1.755,9.291,9.291,0,0,1-1.4,3.405,2.016,2.016,0,0,1-1.583.878,2.014,2.014,0,0,1-.878,1.582,9.292,9.292,0,0,1-3.405,1.4,2.028,2.028,0,0,1-1.766-.51,2.1,2.1,0,0,1-1.4.547A2.018,2.018,0,0,1,10.2,21.018Zm2.5-2.084a.693.693,0,0,0,.782.7,7.874,7.874,0,0,0,2.886-1.182.688.688,0,0,0,.049-1.041L12.7,13.7Zm-5.124-1.52a.688.688,0,0,0,.049,1.041,7.653,7.653,0,0,0,2.839,1.182.731.731,0,0,0,.829-.7V13.7ZM4.362,13.485a7.875,7.875,0,0,0,1.182,2.886.688.688,0,0,0,1.041.049L10.3,12.7H5.065A.693.693,0,0,0,4.362,13.485Zm13.053,2.935a.688.688,0,0,0,1.041-.049,7.874,7.874,0,0,0,1.182-2.886.693.693,0,0,0-.7-.782H13.7Zm0-8.841L13.7,11.3h5.237a.693.693,0,0,0,.7-.782,7.873,7.873,0,0,0-1.182-2.886.615.615,0,0,0-.52-.263A.741.741,0,0,0,17.415,7.579ZM5.544,7.628a7.874,7.874,0,0,0-1.182,2.886.693.693,0,0,0,.7.782H10.3L6.585,7.579a.743.743,0,0,0-.522-.214A.614.614,0,0,0,5.544,7.628ZM12.7,5.065V10.3l3.717-3.717a.688.688,0,0,0-.049-1.041,7.874,7.874,0,0,0-2.886-1.182.6.6,0,0,0-.114-.011A.707.707,0,0,0,12.7,5.065Zm-2.235-.7A7.654,7.654,0,0,0,7.628,5.544a.688.688,0,0,0-.049,1.041L11.3,10.3V5.065a.74.74,0,0,0-.714-.715A.6.6,0,0,0,10.468,4.362Z" fill="#fff"/>
</svg>
